<svg width="32" height="32" viewBox="0 0 32 32" fill="none" xmlns="http://www.w3.org/2000/svg">
  <path fill-rule="evenodd" clip-rule="evenodd" d="M16 29.7143C23.5742 29.7143 29.7143 23.5742 29.7143 16C29.7143 8.42581 23.5742 2.28571 16 2.28571C8.42581 2.28571 2.28571 8.42581 2.28571 16C2.28571 23.5742 8.42581 29.7143 16 29.7143ZM16 32C24.8366 32 32 24.8366 32 16C32 7.16344 24.8366 0 16 0C7.16344 0 0 7.16344 0 16C0 24.8366 7.16344 32 16 32Z" fill="rgb(12,12,13)"/>
  <path fill-rule="evenodd" clip-rule="evenodd" d="M20.4805 26.1797C21.904 23.6884 22.8572 20.0942 22.8572 16C22.8572 11.9058 21.904 8.31159 20.4805 5.82032C19.0199 3.2644 17.3505 2.28571 16 2.28571C14.6495 2.28571 12.9801 3.2644 11.5196 5.82032C10.096 8.31159 9.14289 11.9058 9.14289 16C9.14289 20.0942 10.096 23.6884 11.5196 26.1797C12.9801 28.7356 14.6495 29.7143 16 29.7143C17.3505 29.7143 19.0199 28.7356 20.4805 26.1797ZM16 32C21.0495 32 25.1429 24.8366 25.1429 16C25.1429 7.16344 21.0495 0 16 0C10.9506 0 6.85718 7.16344 6.85718 16C6.85718 24.8366 10.9506 32 16 32Z" fill="rgb(12,12,13)"/>
  <path fill-rule="evenodd" clip-rule="evenodd" d="M14.8571 31.4462L14.8571 2.09801e-08L17.1428 0L17.1428 31.4462L14.8571 31.4462Z" fill="rgb(12,12,13)"/>
  <path fill-rule="evenodd" clip-rule="evenodd" d="M1.14289 14.8588L30.8572 14.8588V17.1445L1.14289 17.1445V14.8588Z" fill="rgb(12,12,13)"/>
</svg>
