<svg width="1891" height="1260" viewBox="0 0 1891 1260" fill="none" xmlns="http://www.w3.org/2000/svg">
<mask id="mask0_201_3" style="mask-type:luminance" maskUnits="userSpaceOnUse" x="503" y="23" width="365" height="1212">
<path d="M503.667 23.6666H867.422V1234.33H503.667V23.6666Z" fill="white"/>
</mask>
<g mask="url(#mask0_201_3)">
<mask id="mask1_201_3" style="mask-type:luminance" maskUnits="userSpaceOnUse" x="504" y="24" width="363" height="1210">
<path d="M762.339 1126.56C697.25 1061.47 646.411 985.802 611.318 902.776C574.964 816.781 556.13 724.193 556.13 628.693C556.13 533.188 574.964 440.625 611.318 354.635C646.411 271.609 697.25 195.932 762.339 130.849C794.583 98.6042 829.406 69.8698 866.448 44.7917C847.073 36.9635 827.214 30.0677 806.938 24.1562C778.594 45.4531 751.479 68.8802 725.927 94.4323C581.984 238.375 504.63 430.219 504.63 628.693C504.63 827.161 581.984 1019.01 725.927 1162.95C751.479 1188.5 778.594 1211.93 806.938 1233.22C827.214 1227.31 847.073 1220.42 866.448 1212.59C829.406 1187.51 794.552 1158.78 762.339 1126.53" fill="white"/>
</mask>
<g mask="url(#mask1_201_3)">
<path d="M-14.0625 -15.9167H1904.81V1273.33H-14.0625V-15.9167Z" fill="#171717"/>
</g>
</g>
<mask id="mask2_201_3" style="mask-type:luminance" maskUnits="userSpaceOnUse" x="378" y="0" width="337" height="1260">
<path d="M378.333 0.078125H714.333V1259.33H378.333V0.078125Z" fill="white"/>
</mask>
<g mask="url(#mask2_201_3)">
<mask id="mask3_201_3" style="mask-type:luminance" maskUnits="userSpaceOnUse" x="378" y="0" width="336" height="1260">
<path d="M673.286 1216.61C596.739 1140.07 536.812 1051.02 495.302 952.786C452.286 851.078 430.182 742.078 430.182 629.719C430.182 517.365 452.286 408.365 495.302 306.651C536.812 208.422 596.739 119.401 673.286 42.8229L713.177 5.48438C690.234 2.48438 666.864 0.713542 643.203 0.234375L636.87 6.41146C471.963 171.318 378.682 393.938 378.682 629.719C378.682 865.505 471.932 1088.09 636.87 1253.03L643.203 1259.21C666.864 1258.73 690.203 1256.99 713.177 1253.96L673.286 1216.61Z" fill="white"/>
</mask>
<g mask="url(#mask3_201_3)">
<path d="M-14.0626 -14.9167H1904.81V1274.33H-14.0626V-14.9167Z" fill="#171717"/>
</g>
</g>
<mask id="mask4_201_3" style="mask-type:luminance" maskUnits="userSpaceOnUse" x="252" y="7" width="283" height="1246">
<path d="M252.781 7.33331H534.615V1252.67H252.781V7.33331Z" fill="white"/>
</mask>
<g mask="url(#mask4_201_3)">
<mask id="mask5_201_3" style="mask-type:luminance" maskUnits="userSpaceOnUse" x="252" y="7" width="283" height="1246">
<path d="M379.312 1001.8C329.672 884.37 304.266 758.995 304.266 629.719C304.266 500.448 329.641 375.068 379.312 257.641C417.854 166.521 469.953 82.5364 534.594 7.36975C507.24 11.5729 480.453 17.5416 454.359 25.1302C325.922 196.036 252.797 406.234 252.797 629.719C252.797 853.208 325.922 1063.44 454.359 1234.31C480.453 1241.9 507.208 1247.87 534.594 1252.07C469.953 1176.93 417.854 1092.92 379.312 1001.8Z" fill="white"/>
</mask>
<g mask="url(#mask5_201_3)">
<path d="M-14.0625 -14.9167H1904.81V1274.33H-14.0625V-14.9167Z" fill="#171717"/>
</g>
</g>
<mask id="mask6_201_3" style="mask-type:luminance" maskUnits="userSpaceOnUse" x="126" y="75" width="205" height="1110">
<path d="M126.854 75.3333H330.734V1184.39H126.854V75.3333Z" fill="white"/>
</mask>
<g mask="url(#mask6_201_3)">
<mask id="mask7_201_3" style="mask-type:luminance" maskUnits="userSpaceOnUse" x="126" y="76" width="205" height="1108">
<path d="M263.297 1050.81C206.995 917.667 178.354 775.88 178.354 629.719C178.354 483.557 206.995 341.776 263.323 208.63C282.729 162.74 305.198 118.531 330.51 76.0573C298.51 93.4531 268.182 113.552 239.839 136.016C167.193 285.927 126.88 453.562 126.88 629.719C126.88 805.875 167.193 973.516 239.839 1123.42C268.182 1145.89 298.51 1165.98 330.51 1183.38C305.198 1140.91 282.729 1096.7 263.323 1050.81" fill="white"/>
</mask>
<g mask="url(#mask7_201_3)">
<path d="M-14.0625 -14.9167H1904.81V1274.33H-14.0625V-14.9167Z" fill="#171717"/>
</g>
</g>
<mask id="mask8_201_3" style="mask-type:luminance" maskUnits="userSpaceOnUse" x="0" y="287" width="103" height="685">
<path d="M0.932251 287.906H102.333V971.333H0.932251V287.906Z" fill="white"/>
</mask>
<g mask="url(#mask8_201_3)">
<mask id="mask9_201_3" style="mask-type:luminance" maskUnits="userSpaceOnUse" x="0" y="288" width="102" height="683">
<path d="M52.4062 629.719C52.4062 512.953 68.875 398.734 101.266 288.599C40.5312 382.63 4.14583 493.875 1.11458 613.432L0.9375 629.719C0.9375 635.177 1.08854 640.578 1.14583 646.005C4.17708 765.563 40.5573 876.813 101.297 970.844C68.875 860.703 52.4375 746.49 52.4375 629.719" fill="white"/>
</mask>
<g mask="url(#mask9_201_3)">
<path d="M-14.0625 -14.9167H1904.81V1274.33H-14.0625V-14.9167Z" fill="#171717"/>
</g>
</g>
<mask id="mask10_201_3" style="mask-type:luminance" maskUnits="userSpaceOnUse" x="630" y="0" width="1261" height="1260">
<path d="M630.557 0.078125H1890.33V1259.33H630.557V0.078125Z" fill="white"/>
</mask>
<g mask="url(#mask10_201_3)">
<mask id="mask11_201_3" style="mask-type:luminance" maskUnits="userSpaceOnUse" x="630" y="0" width="1260" height="1260">
<path d="M1260.18 0.083313C912.458 0.083313 630.573 281.969 630.573 629.719C630.573 977.474 912.458 1259.33 1260.18 1259.33C1607.9 1259.33 1889.82 977.443 1889.82 629.693C1889.82 281.938 1607.93 0.083313 1260.18 0.083313ZM1260.18 51.5521C1414.62 51.5521 1559.79 111.693 1669 220.901C1778.21 330.109 1838.35 475.281 1838.35 629.719C1838.35 784.161 1778.21 929.333 1669 1038.54C1559.79 1147.75 1414.62 1207.89 1260.18 1207.89C1105.74 1207.89 960.568 1147.75 851.359 1038.54C742.151 929.333 682.016 784.161 682.016 629.719C682.016 475.281 742.151 330.109 851.359 220.901C960.568 111.693 1105.74 51.5521 1260.18 51.5521Z" fill="white"/>
</mask>
<g mask="url(#mask11_201_3)">
<path d="M-14.0625 -14.9167H1904.81V1274.33H-14.0625V-14.9167Z" fill="#171717"/>
</g>
</g>
<mask id="mask12_201_3" style="mask-type:luminance" maskUnits="userSpaceOnUse" x="1001" y="256" width="518" height="746">
<path d="M1001 256.667H1518.33V1002H1001V256.667Z" fill="white"/>
</mask>
<g mask="url(#mask12_201_3)">
<mask id="mask13_201_3" style="mask-type:luminance" maskUnits="userSpaceOnUse" x="1001" y="257" width="518" height="745">
<path d="M1322.54 810.917C1309.34 815.536 1295.28 817.875 1280.7 817.875H1182.49V651.135H1280.7C1295.24 651.135 1309.34 653.474 1322.54 658.094C1360.51 671.354 1385.05 701.349 1385.05 734.49C1385.05 767.635 1360.51 797.63 1322.54 810.885M1182.49 438.359H1259.43C1283.22 438.359 1306.07 445.318 1323.83 457.974C1344.58 472.76 1356.52 494.089 1356.52 516.432C1356.52 538.776 1344.61 560.104 1323.83 574.891C1306.1 587.547 1283.22 594.505 1259.43 594.505H1182.49V438.359ZM1487.57 659.385C1470.41 638.839 1446.9 621.979 1419.6 610.672L1410.57 606.927L1418.88 601.734C1458.2 577.198 1480.76 540.276 1480.76 500.448C1480.76 481.401 1475.66 463.042 1465.61 445.948C1439.34 401.167 1382.53 372.219 1320.92 372.219H1315.88V257.854H1249.74V372.25H1182.49V257.854H1116.36V372.25H1001.99V438.385H1041.55C1061.77 438.385 1078.21 454.823 1078.21 475.042V781.219C1078.21 801.438 1061.77 817.875 1041.55 817.875H1001.99V887.188H1116.33V1001.56H1182.46V887.188H1249.68V1001.56H1315.79V887.188H1336.36C1403.43 887.188 1464.89 857.615 1496.71 810.047C1510.84 788.927 1518.31 765.026 1518.31 740.88C1518.31 711.724 1507.66 683.557 1487.51 659.443" fill="white"/>
</mask>
<g mask="url(#mask13_201_3)">
<path d="M-14.0625 -14.9167H1904.81V1274.33H-14.0625V-14.9167Z" fill="#171717"/>
</g>
</g>
<mask id="mask14_201_3" style="mask-type:luminance" maskUnits="userSpaceOnUse" x="1001" y="256" width="518" height="746">
<path d="M1001 256.667H1518.33V1002H1001V256.667Z" fill="white"/>
</mask>
<g mask="url(#mask14_201_3)">
<mask id="mask15_201_3" style="mask-type:luminance" maskUnits="userSpaceOnUse" x="1001" y="257" width="518" height="745">
<path d="M1322.54 810.917C1309.34 815.536 1295.28 817.875 1280.7 817.875H1182.49V651.135H1280.7C1295.24 651.135 1309.34 653.474 1322.54 658.094C1360.51 671.354 1385.05 701.349 1385.05 734.49C1385.05 767.635 1360.51 797.63 1322.54 810.885M1182.49 438.359H1259.43C1283.22 438.359 1306.07 445.318 1323.83 457.974C1344.58 472.76 1356.52 494.089 1356.52 516.432C1356.52 538.776 1344.61 560.104 1323.83 574.891C1306.1 587.547 1283.22 594.505 1259.43 594.505H1182.49V438.359ZM1487.57 659.385C1470.41 638.839 1446.9 621.979 1419.6 610.672L1410.57 606.927L1418.88 601.734C1458.2 577.198 1480.76 540.276 1480.76 500.448C1480.76 481.401 1475.66 463.042 1465.61 445.948C1439.34 401.167 1382.53 372.219 1320.92 372.219H1315.88V257.854H1249.74V372.25H1182.49V257.854H1116.36V372.25H1001.99V438.385H1041.55C1061.77 438.385 1078.21 454.823 1078.21 475.042V781.219C1078.21 801.438 1061.77 817.875 1041.55 817.875H1001.99V887.188H1116.33V1001.56H1182.46V887.188H1249.68V1001.56H1315.79V887.188H1336.36C1403.43 887.188 1464.89 857.615 1496.71 810.047C1510.84 788.927 1518.31 765.026 1518.31 740.88C1518.31 711.724 1507.66 683.557 1487.51 659.443" fill="white"/>
</mask>
<g mask="url(#mask15_201_3)">
<path d="M-14.0625 -14.9167H1904.81V1274.33H-14.0625V-14.9167Z" fill="#171717"/>
</g>
</g>
</svg>
