<svg width="3000" height="3000" viewBox="0 0 3000 3000" fill="none" xmlns="http://www.w3.org/2000/svg">
<g clip-path="url(#clip0_1_73)">
<mask id="mask0_1_73" style="mask-type:luminance" maskUnits="userSpaceOnUse" x="0" y="0" width="3000" height="2999">
<path d="M0.666504 -6.10352e-05H2999.33V2998.67H0.666504V-6.10352e-05Z" fill="white"/>
</mask>
<g mask="url(#mask0_1_73)">
<path d="M0.666504 -6.10352e-05H2999.33V3008.66H0.666504V-6.10352e-05Z" fill="white"/>
<path d="M0.666504 -6.10352e-05H2999.33V2998.67H0.666504V-6.10352e-05Z" fill="white"/>
<path d="M0.666504 -6.10352e-05V2998.67H2999.33V-6.10352e-05H0.666504Z" fill="url(#paint0_linear_1_73)"/>
</g>
<mask id="mask1_1_73" style="mask-type:luminance" maskUnits="userSpaceOnUse" x="1058" y="894" width="365" height="1212">
<path d="M1058.67 894.667H1422.42V2105.33H1058.67V894.667Z" fill="white"/>
</mask>
<g mask="url(#mask1_1_73)">
<mask id="mask2_1_73" style="mask-type:luminance" maskUnits="userSpaceOnUse" x="1059" y="895" width="363" height="1210">
<path d="M1317.34 1997.56C1252.25 1932.47 1201.41 1856.8 1166.32 1773.78C1129.96 1687.78 1111.13 1595.19 1111.13 1499.69C1111.13 1404.19 1129.96 1311.62 1166.32 1225.64C1201.41 1142.61 1252.25 1066.93 1317.34 1001.85C1349.58 969.604 1384.41 940.87 1421.45 915.792C1402.07 907.964 1382.21 901.068 1361.94 895.156C1333.59 916.453 1306.48 939.88 1280.93 965.432C1136.98 1109.38 1059.63 1301.22 1059.63 1499.69C1059.63 1698.16 1136.98 1890.01 1280.93 2033.95C1306.48 2059.5 1333.59 2082.93 1361.94 2104.22C1382.21 2098.31 1402.07 2091.42 1421.45 2083.59C1384.41 2058.51 1349.55 2029.78 1317.34 1997.53" fill="white"/>
</mask>
<g mask="url(#mask2_1_73)">
<path d="M540.938 855.083H2459.81V2144.33H540.938V855.083Z" fill="white"/>
</g>
</g>
<mask id="mask3_1_73" style="mask-type:luminance" maskUnits="userSpaceOnUse" x="933" y="870" width="337" height="1260">
<path d="M933.333 870.078H1269.33V2129.33H933.333V870.078Z" fill="white"/>
</mask>
<g mask="url(#mask3_1_73)">
<mask id="mask4_1_73" style="mask-type:luminance" maskUnits="userSpaceOnUse" x="933" y="870" width="336" height="1260">
<path d="M1228.29 2086.61C1151.74 2010.07 1091.81 1921.02 1050.3 1822.79C1007.29 1721.08 985.182 1612.08 985.182 1499.72C985.182 1387.36 1007.29 1278.36 1050.3 1176.65C1091.81 1078.42 1151.74 989.401 1228.29 912.823L1268.18 875.484C1245.23 872.484 1221.86 870.714 1198.2 870.234L1191.87 876.411C1026.96 1041.32 933.682 1263.94 933.682 1499.72C933.682 1735.51 1026.93 1958.09 1191.87 2123.03L1198.2 2129.21C1221.86 2128.73 1245.2 2126.99 1268.18 2123.96L1228.29 2086.61Z" fill="white"/>
</mask>
<g mask="url(#mask4_1_73)">
<path d="M540.938 855.083H2459.81V2144.33H540.938V855.083Z" fill="white"/>
</g>
</g>
<mask id="mask5_1_73" style="mask-type:luminance" maskUnits="userSpaceOnUse" x="807" y="877" width="283" height="1246">
<path d="M807.781 877.333H1089.61V2122.67H807.781V877.333Z" fill="white"/>
</mask>
<g mask="url(#mask5_1_73)">
<mask id="mask6_1_73" style="mask-type:luminance" maskUnits="userSpaceOnUse" x="807" y="877" width="283" height="1246">
<path d="M934.312 1871.8C884.672 1754.37 859.266 1628.99 859.266 1499.72C859.266 1370.45 884.641 1245.07 934.312 1127.64C972.854 1036.52 1024.95 952.536 1089.59 877.37C1062.24 881.573 1035.45 887.542 1009.36 895.13C880.922 1066.04 807.797 1276.23 807.797 1499.72C807.797 1723.21 880.922 1933.44 1009.36 2104.31C1035.45 2111.9 1062.21 2117.87 1089.59 2122.07C1024.95 2046.93 972.854 1962.92 934.312 1871.8Z" fill="white"/>
</mask>
<g mask="url(#mask6_1_73)">
<path d="M540.938 855.083H2459.81V2144.33H540.938V855.083Z" fill="white"/>
</g>
</g>
<mask id="mask7_1_73" style="mask-type:luminance" maskUnits="userSpaceOnUse" x="681" y="945" width="205" height="1110">
<path d="M681.854 945.333H885.734V2054.39H681.854V945.333Z" fill="white"/>
</mask>
<g mask="url(#mask7_1_73)">
<mask id="mask8_1_73" style="mask-type:luminance" maskUnits="userSpaceOnUse" x="681" y="946" width="205" height="1108">
<path d="M818.297 1920.81C761.995 1787.67 733.354 1645.88 733.354 1499.72C733.354 1353.56 761.995 1211.78 818.323 1078.63C837.729 1032.74 860.198 988.531 885.51 946.057C853.51 963.453 823.182 983.552 794.838 1006.02C722.193 1155.93 681.88 1323.56 681.88 1499.72C681.88 1675.88 722.193 1843.52 794.838 1993.42C823.182 2015.89 853.51 2035.98 885.51 2053.38C860.198 2010.91 837.729 1966.7 818.323 1920.81" fill="white"/>
</mask>
<g mask="url(#mask8_1_73)">
<path d="M540.938 855.083H2459.81V2144.33H540.938V855.083Z" fill="white"/>
</g>
</g>
<mask id="mask9_1_73" style="mask-type:luminance" maskUnits="userSpaceOnUse" x="555" y="1157" width="103" height="685">
<path d="M555.932 1157.91H657.333V1841.33H555.932V1157.91Z" fill="white"/>
</mask>
<g mask="url(#mask9_1_73)">
<mask id="mask10_1_73" style="mask-type:luminance" maskUnits="userSpaceOnUse" x="555" y="1158" width="102" height="683">
<path d="M607.406 1499.72C607.406 1382.95 623.875 1268.73 656.266 1158.6C595.531 1252.63 559.146 1363.88 556.115 1483.43L555.938 1499.72C555.938 1505.18 556.089 1510.58 556.146 1516.01C559.177 1635.56 595.557 1746.81 656.297 1840.84C623.875 1730.7 607.438 1616.49 607.438 1499.72" fill="white"/>
</mask>
<g mask="url(#mask10_1_73)">
<path d="M540.938 855.083H2459.81V2144.33H540.938V855.083Z" fill="white"/>
</g>
</g>
<mask id="mask11_1_73" style="mask-type:luminance" maskUnits="userSpaceOnUse" x="1185" y="870" width="1261" height="1260">
<path d="M1185.56 870.078H2445.33V2129.33H1185.56V870.078Z" fill="white"/>
</mask>
<g mask="url(#mask11_1_73)">
<mask id="mask12_1_73" style="mask-type:luminance" maskUnits="userSpaceOnUse" x="1185" y="870" width="1260" height="1260">
<path d="M1815.18 870.083C1467.46 870.083 1185.57 1151.97 1185.57 1499.72C1185.57 1847.47 1467.46 2129.33 1815.18 2129.33C2162.9 2129.33 2444.82 1847.44 2444.82 1499.69C2444.82 1151.94 2162.93 870.083 1815.18 870.083ZM1815.18 921.552C1969.62 921.552 2114.79 981.693 2224 1090.9C2333.21 1200.11 2393.35 1345.28 2393.35 1499.72C2393.35 1654.16 2333.21 1799.33 2224 1908.54C2114.79 2017.75 1969.62 2077.89 1815.18 2077.89C1660.74 2077.89 1515.57 2017.75 1406.36 1908.54C1297.15 1799.33 1237.02 1654.16 1237.02 1499.72C1237.02 1345.28 1297.15 1200.11 1406.36 1090.9C1515.57 981.693 1660.74 921.552 1815.18 921.552Z" fill="white"/>
</mask>
<g mask="url(#mask12_1_73)">
<path d="M540.938 855.083H2459.81V2144.33H540.938V855.083Z" fill="white"/>
</g>
</g>
<mask id="mask13_1_73" style="mask-type:luminance" maskUnits="userSpaceOnUse" x="1556" y="1126" width="518" height="746">
<path d="M1556 1126.67H2073.33V1872H1556V1126.67Z" fill="white"/>
</mask>
<g mask="url(#mask13_1_73)">
<mask id="mask14_1_73" style="mask-type:luminance" maskUnits="userSpaceOnUse" x="1556" y="1127" width="518" height="745">
<path d="M1877.54 1680.92C1864.34 1685.54 1850.28 1687.88 1835.7 1687.88H1737.49V1521.14H1835.7C1850.24 1521.14 1864.34 1523.47 1877.54 1528.09C1915.51 1541.35 1940.05 1571.35 1940.05 1604.49C1940.05 1637.64 1915.51 1667.63 1877.54 1680.89M1737.49 1308.36H1814.43C1838.22 1308.36 1861.07 1315.32 1878.83 1327.97C1899.58 1342.76 1911.52 1364.09 1911.52 1386.43C1911.52 1408.78 1899.61 1430.1 1878.83 1444.89C1861.1 1457.55 1838.22 1464.51 1814.43 1464.51H1737.49V1308.36ZM2042.57 1529.39C2025.41 1508.84 2001.9 1491.98 1974.6 1480.67L1965.57 1476.93L1973.88 1471.73C2013.2 1447.2 2035.76 1410.28 2035.76 1370.45C2035.76 1351.4 2030.66 1333.04 2020.61 1315.95C1994.34 1271.17 1937.53 1242.22 1875.92 1242.22H1870.88V1127.85H1804.74V1242.25H1737.49V1127.85H1671.36V1242.25H1556.99V1308.39H1596.55C1616.77 1308.39 1633.21 1324.82 1633.21 1345.04V1651.22C1633.21 1671.44 1616.77 1687.88 1596.55 1687.88H1556.99V1757.19H1671.33V1871.56H1737.46V1757.19H1804.68V1871.56H1870.79V1757.19H1891.36C1958.43 1757.19 2019.89 1727.61 2051.71 1680.05C2065.84 1658.93 2073.31 1635.03 2073.31 1610.88C2073.31 1581.72 2062.66 1553.56 2042.51 1529.44" fill="white"/>
</mask>
<g mask="url(#mask14_1_73)">
<path d="M540.938 855.083H2459.81V2144.33H540.938V855.083Z" fill="white"/>
</g>
</g>
</g>
<defs>
<linearGradient id="paint0_linear_1_73" x1="0.666236" y1="7.2239e-05" x2="0.666236" y2="2998.67" gradientUnits="userSpaceOnUse">
<stop stop-color="#F19E00"/>
<stop offset="0.0078125" stop-color="#F19E00"/>
<stop offset="0.015625" stop-color="#F19D00"/>
<stop offset="0.0234375" stop-color="#F19D00"/>
<stop offset="0.03125" stop-color="#F09C00"/>
<stop offset="0.0390625" stop-color="#F09B00"/>
<stop offset="0.046875" stop-color="#F09B00"/>
<stop offset="0.0546875" stop-color="#F09A00"/>
<stop offset="0.0625" stop-color="#F09A00"/>
<stop offset="0.0703125" stop-color="#F09900"/>
<stop offset="0.078125" stop-color="#EF9800"/>
<stop offset="0.0859375" stop-color="#EF9800"/>
<stop offset="0.09375" stop-color="#EF9700"/>
<stop offset="0.101562" stop-color="#EF9600"/>
<stop offset="0.109375" stop-color="#EF9600"/>
<stop offset="0.117188" stop-color="#EF9500"/>
<stop offset="0.125" stop-color="#EF9500"/>
<stop offset="0.132812" stop-color="#EE9400"/>
<stop offset="0.140625" stop-color="#EE9300"/>
<stop offset="0.148438" stop-color="#EE9300"/>
<stop offset="0.15625" stop-color="#EE9200"/>
<stop offset="0.164062" stop-color="#EE9200"/>
<stop offset="0.171875" stop-color="#EE9100"/>
<stop offset="0.179688" stop-color="#ED9000"/>
<stop offset="0.1875" stop-color="#ED9000"/>
<stop offset="0.195312" stop-color="#ED8F00"/>
<stop offset="0.203125" stop-color="#ED8F00"/>
<stop offset="0.210938" stop-color="#ED8E00"/>
<stop offset="0.21875" stop-color="#ED8D00"/>
<stop offset="0.226562" stop-color="#ED8D00"/>
<stop offset="0.234375" stop-color="#EC8C00"/>
<stop offset="0.242188" stop-color="#EC8C00"/>
<stop offset="0.25" stop-color="#EC8B00"/>
<stop offset="0.257812" stop-color="#EC8A00"/>
<stop offset="0.265625" stop-color="#EC8A00"/>
<stop offset="0.273438" stop-color="#EC8900"/>
<stop offset="0.28125" stop-color="#EB8800"/>
<stop offset="0.289062" stop-color="#EB8800"/>
<stop offset="0.296875" stop-color="#EB8700"/>
<stop offset="0.304688" stop-color="#EB8700"/>
<stop offset="0.3125" stop-color="#EB8600"/>
<stop offset="0.320312" stop-color="#EB8500"/>
<stop offset="0.328125" stop-color="#EB8500"/>
<stop offset="0.335938" stop-color="#EA8400"/>
<stop offset="0.34375" stop-color="#EA8400"/>
<stop offset="0.351562" stop-color="#EA8300"/>
<stop offset="0.359375" stop-color="#EA8200"/>
<stop offset="0.367188" stop-color="#EA8200"/>
<stop offset="0.375" stop-color="#EA8100"/>
<stop offset="0.382812" stop-color="#E98100"/>
<stop offset="0.390625" stop-color="#E98000"/>
<stop offset="0.398438" stop-color="#E97F00"/>
<stop offset="0.40625" stop-color="#E97F00"/>
<stop offset="0.414062" stop-color="#E97E00"/>
<stop offset="0.421875" stop-color="#E97D00"/>
<stop offset="0.429688" stop-color="#E97D00"/>
<stop offset="0.4375" stop-color="#E87C00"/>
<stop offset="0.445312" stop-color="#E87C00"/>
<stop offset="0.453125" stop-color="#E87B00"/>
<stop offset="0.460938" stop-color="#E87A00"/>
<stop offset="0.46875" stop-color="#E87A00"/>
<stop offset="0.476562" stop-color="#E87900"/>
<stop offset="0.484375" stop-color="#E77900"/>
<stop offset="0.492188" stop-color="#E77800"/>
<stop offset="0.5" stop-color="#E77700"/>
<stop offset="0.507812" stop-color="#E77700"/>
<stop offset="0.515625" stop-color="#E77600"/>
<stop offset="0.523438" stop-color="#E77600"/>
<stop offset="0.53125" stop-color="#E67500"/>
<stop offset="0.539062" stop-color="#E67400"/>
<stop offset="0.546875" stop-color="#E67400"/>
<stop offset="0.554688" stop-color="#E67300"/>
<stop offset="0.5625" stop-color="#E67300"/>
<stop offset="0.570312" stop-color="#E67200"/>
<stop offset="0.578125" stop-color="#E67100"/>
<stop offset="0.585938" stop-color="#E57100"/>
<stop offset="0.59375" stop-color="#E57000"/>
<stop offset="0.601562" stop-color="#E56F00"/>
<stop offset="0.609375" stop-color="#E56F00"/>
<stop offset="0.617188" stop-color="#E56E00"/>
<stop offset="0.625" stop-color="#E56E00"/>
<stop offset="0.632812" stop-color="#E46D00"/>
<stop offset="0.640625" stop-color="#E46C00"/>
<stop offset="0.648438" stop-color="#E46C00"/>
<stop offset="0.65625" stop-color="#E46B00"/>
<stop offset="0.664062" stop-color="#E46B00"/>
<stop offset="0.671875" stop-color="#E46A00"/>
<stop offset="0.679688" stop-color="#E46900"/>
<stop offset="0.6875" stop-color="#E36900"/>
<stop offset="0.695312" stop-color="#E36800"/>
<stop offset="0.703125" stop-color="#E36800"/>
<stop offset="0.710938" stop-color="#E36700"/>
<stop offset="0.71875" stop-color="#E36600"/>
<stop offset="0.726562" stop-color="#E36600"/>
<stop offset="0.734375" stop-color="#E26500"/>
<stop offset="0.742188" stop-color="#E26400"/>
<stop offset="0.75" stop-color="#E26400"/>
<stop offset="0.757812" stop-color="#E26300"/>
<stop offset="0.765625" stop-color="#E26300"/>
<stop offset="0.773438" stop-color="#E26200"/>
<stop offset="0.78125" stop-color="#E26100"/>
<stop offset="0.789062" stop-color="#E16100"/>
<stop offset="0.796875" stop-color="#E16000"/>
<stop offset="0.804688" stop-color="#E16000"/>
<stop offset="0.8125" stop-color="#E15F00"/>
<stop offset="0.820312" stop-color="#E15E00"/>
<stop offset="0.828125" stop-color="#E15E00"/>
<stop offset="0.835938" stop-color="#E05D00"/>
<stop offset="0.84375" stop-color="#E05D00"/>
<stop offset="0.851562" stop-color="#E05C00"/>
<stop offset="0.859375" stop-color="#E05B00"/>
<stop offset="0.867188" stop-color="#E05B00"/>
<stop offset="0.875" stop-color="#E05A00"/>
<stop offset="0.882812" stop-color="#DF5A00"/>
<stop offset="0.890625" stop-color="#DF5900"/>
<stop offset="0.898438" stop-color="#DF5800"/>
<stop offset="0.90625" stop-color="#DF5800"/>
<stop offset="0.914062" stop-color="#DF5700"/>
<stop offset="0.921875" stop-color="#DF5600"/>
<stop offset="0.929688" stop-color="#DF5600"/>
<stop offset="0.9375" stop-color="#DE5500"/>
<stop offset="0.945312" stop-color="#DE5500"/>
<stop offset="0.953125" stop-color="#DE5400"/>
<stop offset="0.960938" stop-color="#DE5300"/>
<stop offset="0.96875" stop-color="#DE5300"/>
<stop offset="0.976562" stop-color="#DE5200"/>
<stop offset="0.984375" stop-color="#DD5200"/>
<stop offset="0.992188" stop-color="#DD5100"/>
<stop offset="1" stop-color="#DD5000"/>
</linearGradient>
<clipPath id="clip0_1_73">
<rect width="3000" height="3000" fill="white"/>
</clipPath>
</defs>
</svg>
